<svg xmlns="http://www.w3.org/2000/svg" xmlns:xlink="http://www.w3.org/1999/xlink" version="1.1" x="0px" y="0px" viewBox="0 0 500 500" style="enable-background:new 0 0 500 500;" xml:space="preserve">
<g id="Background_Complete">
	<g>
		<rect y="382.398" style="fill:#EBEBEB;" width="500" height="0.25"/>
		<rect x="53.792" y="391.208" style="fill:#EBEBEB;" width="41.208" height="0.25"/>
		<rect x="137.667" y="389.208" style="fill:#EBEBEB;" width="41.333" height="0.25"/>
		<rect x="222.778" y="389.208" style="fill:#EBEBEB;" width="10" height="0.25"/>
		<rect x="86.582" y="397.75" style="fill:#EBEBEB;" width="46.251" height="0.25"/>
		<rect x="271.201" y="391.083" style="fill:#EBEBEB;" width="21.597" height="0.25"/>
		<rect x="301.701" y="391.083" style="fill:#EBEBEB;" width="27.93" height="0.25"/>
		<rect x="401.888" y="395.306" style="fill:#EBEBEB;" width="62.445" height="0.25"/>
		<path style="fill:#EBEBEB;" d="M237.014,337.8H43.915c-3.147,0-5.708-2.561-5.708-5.708V60.66c0-3.147,2.561-5.708,5.708-5.708    h193.099c3.146,0,5.707,2.561,5.707,5.708v271.432C242.721,335.239,240.16,337.8,237.014,337.8z M43.915,55.203    c-3.01,0-5.458,2.448-5.458,5.458v271.432c0,3.01,2.448,5.458,5.458,5.458h193.099c3.009,0,5.457-2.448,5.457-5.458V60.66    c0-3.009-2.448-5.458-5.457-5.458H43.915z"/>
		<path style="fill:#EBEBEB;" d="M453.31,337.8H260.212c-3.147,0-5.707-2.561-5.707-5.708V60.66c0-3.147,2.561-5.708,5.707-5.708    H453.31c3.148,0,5.708,2.561,5.708,5.708v271.432C459.019,335.239,456.458,337.8,453.31,337.8z M260.212,55.203    c-3.009,0-5.457,2.448-5.457,5.458v271.432c0,3.01,2.448,5.458,5.457,5.458H453.31c3.01,0,5.458-2.448,5.458-5.458V60.66    c0-3.009-2.448-5.458-5.458-5.458H260.212z"/>
	</g>
	<g>
		<g>
			
				<rect x="305.327" y="75.067" transform="matrix(-1 -1.224647e-16 1.224647e-16 -1 713.7433 282.5918)" style="fill:#E6E6E6;" width="103.09" height="132.458"/>
			
				<rect x="300.247" y="75.067" transform="matrix(-1 -1.224647e-16 1.224647e-16 -1 707.9436 282.5918)" style="fill:#F0F0F0;" width="107.449" height="132.458"/>
			
				<rect x="305.327" y="207.525" transform="matrix(-1 -1.224647e-16 1.224647e-16 -1 713.7433 419.7692)" style="fill:#E6E6E6;" width="103.09" height="4.719"/>
			
				<rect x="291.786" y="207.525" transform="matrix(-1 -1.224647e-16 1.224647e-16 -1 691.0204 419.7692)" style="fill:#F0F0F0;" width="107.449" height="4.719"/>
			
				<rect x="294.853" y="94.682" transform="matrix(-1.836970e-16 1 -1 -1.836970e-16 495.2678 -212.6759)" style="fill:#FAFAFA;" width="118.237" height="93.227"/>
			<polygon style="fill:#FFFFFF;" points="369.418,200.414 358.031,82.177 338.33,82.177 349.717,200.414    "/>
			<path style="fill:#F0F0F0;" d="M397.293,160.335c0.301,0,0.544-0.244,0.544-0.544V86.804c0-0.3-0.243-0.544-0.544-0.544     c-0.301,0-0.544,0.244-0.544,0.544v72.987C396.749,160.092,396.992,160.335,397.293,160.335z"/>
			<polygon style="fill:#FFFFFF;" points="345.485,200.414 334.098,82.177 326.417,82.177 337.804,200.414    "/>
			
				<rect x="248.691" y="140.844" transform="matrix(-1.836970e-16 1 -1 -1.836970e-16 449.1057 -166.5137)" style="fill:#E6E6E6;" width="118.237" height="0.903"/>
			<polygon style="opacity:0.5;fill:#E0E0E0;" points="298.567,91.459 403.31,91.459 403.964,84.943 299.221,84.943    "/>
			<polygon style="opacity:0.5;fill:#E0E0E0;" points="298.567,102.171 403.31,102.171 403.964,95.655 299.221,95.655    "/>
			<polygon style="opacity:0.5;fill:#E0E0E0;" points="298.567,112.883 403.31,112.883 403.964,106.367 299.221,106.367    "/>
			<polygon style="opacity:0.5;fill:#E0E0E0;" points="298.567,123.596 403.31,123.596 403.964,117.079 299.221,117.079    "/>
			<polygon style="opacity:0.5;fill:#E0E0E0;" points="298.567,134.308 403.31,134.308 403.964,127.791 299.221,127.791    "/>
			<polygon style="opacity:0.5;fill:#E0E0E0;" points="298.567,145.02 403.31,145.02 403.964,138.503 299.221,138.503    "/>
		</g>
		<g>
			<g>
				
					<rect x="218.96" y="296.111" transform="matrix(-1 -1.224647e-16 1.224647e-16 -1 453.8323 678.5095)" style="fill:#E6E6E6;" width="15.911" height="86.287"/>
				<polygon style="fill:#F0F0F0;" points="223.731,382.398 218.96,382.398 218.96,365.886 228.732,365.886     "/>
				
					<rect x="417.199" y="296.111" transform="matrix(-1 -1.224647e-16 1.224647e-16 -1 850.3098 678.5095)" style="fill:#E6E6E6;" width="15.912" height="86.287"/>
				
					<rect x="218.96" y="296.111" transform="matrix(-1 -1.224647e-16 1.224647e-16 -1 640.3223 668.377)" style="fill:#F0F0F0;" width="202.402" height="76.155"/>
				<polygon style="fill:#F0F0F0;" points="416.592,382.398 421.362,382.398 421.362,365.886 411.59,365.886     "/>
				
					<rect x="222.661" y="301.471" transform="matrix(-1 -1.224647e-16 1.224647e-16 -1 640.3224 633.4143)" style="fill:#E6E6E6;" width="195.001" height="30.472"/>
				<path style="fill:#F0F0F0;" d="M251.241,310.94h134.636c4.654,0,9.104-3.759,12.305-10.396v0H238.936v0      C242.137,307.181,246.587,310.94,251.241,310.94z"/>
				
					<rect x="222.661" y="336.868" transform="matrix(-1 -1.224647e-16 1.224647e-16 -1 640.3224 704.2094)" style="fill:#E6E6E6;" width="195.001" height="30.473"/>
				<path style="fill:#F0F0F0;" d="M251.241,346.338h134.636c4.654,0,9.104-3.759,12.305-10.396l0,0H238.936l0,0      C242.137,342.579,246.587,346.338,251.241,346.338z"/>
			</g>
		</g>
		<g>
			<path style="fill:#EBEBEB;" d="M375.575,274.889c2.476-2.416-0.146-5.705,3.179-8.039c3.325-2.334,0.473-5.845,0.591-9.094     c0.118-3.249,4.465-3.764,5.708-7.537c0.519-1.576-0.09-3.549-0.976-5.313c-1.881-3.745-7.043-4.608-9.836-1.482     c-0.134,0.15-0.263,0.307-0.386,0.471c-2.462,3.294-0.046,6.464-2.793,8.681s-7.679,2.673-7.518,6.375     c0.161,3.702-3.573,4.017-5.564,6.871c-1.224,1.756-0.29,4.668,0.61,6.65c0.636,1.4,1.781,2.505,3.205,3.085     C365.106,276.909,371.585,278.781,375.575,274.889z"/>
			<path style="fill:#E0E0E0;" d="M381.076,283.633c4.187-1.766,2.559-7.046,7.745-8.304c5.186-1.258,3.383-6.92,5.086-10.836     c1.704-3.916,7.266-2.459,10.597-6.476c2.053-2.476,1.516-7.19,0.802-10.441c-0.513-2.337-2.53-4.055-4.919-4.166     c-1.98-0.092-4.402,0.176-6.539,1.501c-4.591,2.847-3.158,7.882-7.581,9.274c-4.423,1.392-10.672-0.417-12.252,4.187     c-1.58,4.604-6.297,3.198-10.1,5.732c-2.726,1.817-2.623,6.961-2.345,9.729c0.12,1.198,0.649,2.311,1.492,3.171     C366.006,280.011,373.707,286.74,381.076,283.633z"/>
			<path style="fill:#EBEBEB;" d="M377.728,262.422c2.747-2.103,5.625,0.966,8.413-1.988c2.788-2.954,5.852,0.374,9.084,0.725     c3.232,0.351,4.367-3.877,8.28-4.564c1.634-0.287,3.499,0.6,5.117,1.731c3.436,2.401,3.545,7.633,0.05,9.947     c-0.167,0.111-0.341,0.216-0.522,0.314c-3.615,1.962-6.403-0.885-8.993,1.514c-2.589,2.399-3.75,7.214-7.391,6.522     c-3.641-0.692-4.49,2.958-7.601,4.516c-1.914,0.959-4.661-0.385-6.493-1.561c-1.294-0.831-2.222-2.123-2.592-3.616     C374.221,272.491,373.302,265.81,377.728,262.422z"/>
			<g>
				<path style="fill:#F5F5F5;" d="M348.034,266.805c0,0,0.87,29.306,34.221,29.306c33.351,0,34.221-29.306,34.221-29.306H348.034z"/>
			</g>
		</g>
		<g>
			<rect x="69.617" y="295.59" style="fill:#EBEBEB;" width="101.927" height="12.569"/>
			<g>
				<path style="fill:#F0F0F0;" d="M121.966,267.271L121.966,267.271c-4.955-1.035-8.133-5.892-7.098-10.847l9.147-43.777      c1.035-4.955,5.892-8.133,10.847-7.098l0,0c4.956,1.035,8.133,5.892,7.098,10.847l-9.147,43.777      C131.778,265.128,126.921,268.306,121.966,267.271z"/>
				<path style="fill:#F0F0F0;" d="M116.459,266.315L116.459,266.315c-4.281,0.648-8.276-2.298-8.924-6.579l-5.721-37.819      c-0.648-4.281,2.298-8.276,6.579-8.924l0,0c4.281-0.648,8.276,2.298,8.924,6.579l5.721,37.819      C123.685,261.672,120.74,265.667,116.459,266.315z"/>
				<polygon style="fill:#E6E6E6;" points="137.618,295.59 103.543,295.59 96.437,255.025 144.724,255.025     "/>
				<rect x="93.847" y="249.236" style="fill:#E0E0E0;" width="53.465" height="11.579"/>
			</g>
			<polygon style="fill:#E0E0E0;" points="187.367,382.398 151.738,308.159 137.387,308.159 181.923,382.398    "/>
			<polygon style="fill:#E0E0E0;" points="53.792,382.398 89.421,308.159 103.772,308.159 59.236,382.398    "/>
			<polygon style="fill:#E0E0E0;" points="103.772,382.398 116.236,308.159 130.586,308.159 109.215,382.398    "/>
		</g>
		<g>
			<rect x="70.797" y="86.26" style="fill:#E6E6E6;" width="139.333" height="77.813"/>
			<rect x="69.464" y="86.26" style="fill:#F5F5F5;" width="139.333" height="77.813"/>
			
				<rect x="110.224" y="65.5" transform="matrix(-1.836970e-16 1 -1 -1.836970e-16 264.2975 -13.964)" style="fill:#FFFFFF;" width="57.813" height="119.333"/>
			
				<rect x="51.215" y="124.51" transform="matrix(-1.836970e-16 1 -1 -1.836970e-16 205.2877 45.0458)" style="fill:#E6E6E6;" width="57.813" height="1.314"/>
			<g>
				
					<rect x="88.351" y="105.469" transform="matrix(0.998 -0.0639 0.0639 0.998 -7.1717 7.1516)" style="fill:#F5F5F5;" width="39.701" height="20.419"/>
				
					<rect x="89.729" y="126.978" transform="matrix(0.998 -0.0639 0.0639 0.998 -8.5439 7.2839)" style="fill:#F5F5F5;" width="39.701" height="20.419"/>
				
					<rect x="129.683" y="106.106" transform="matrix(0.998 -0.0639 0.0639 0.998 -7.4142 9.3711)" style="fill:#F5F5F5;" width="26.158" height="28.927"/>
				
					<rect x="156.957" y="109.075" transform="matrix(0.998 -0.0639 0.0639 0.998 -7.1705 11.1076)" style="fill:#F5F5F5;" width="26.158" height="17.119"/>
				
					<rect x="169.5" y="114.883" transform="matrix(0.0639 0.998 -0.998 0.0639 296.2536 -51.1249)" style="fill:#F5F5F5;" width="11.756" height="34.94"/>
			</g>
		</g>
	</g>
</g>
<g id="Background_Simple" style="display:none;">
	<g style="display:inline;">
		<path style="fill:#407BFF;" d="M272.03,139.048c-45.709,49.785-203-25.001-194.366,92.816    c7.043,96.114,118.712,98.436,176.365,52.38c58.606-46.818,173.172,3.702,161.696-113.572    c-3.511-35.878-23.621-80.881-60.634-93.107C296.192,58.11,299.898,108.696,272.03,139.048z"/>
		<path style="opacity:0.9;fill:#FFFFFF;" d="M272.03,139.048c-45.709,49.785-203-25.001-194.366,92.816    c7.043,96.114,118.712,98.436,176.365,52.38c58.606-46.818,173.172,3.702,161.696-113.572    c-3.511-35.878-23.621-80.881-60.634-93.107C296.192,58.11,299.898,108.696,272.03,139.048z"/>
	</g>
</g>
<g id="Shadow_1_">
	<ellipse id="_x3C_Path_x3E__129_" style="fill:#F5F5F5;" cx="250" cy="416.238" rx="193.889" ry="11.323"/>
</g>
<g id="Cloud_2">
	<g>
		<path style="fill:#407BFF;" d="M385.719,230.727c-0.331,0-0.659,0.016-0.989,0.025c-8.106-13.644-22.985-22.793-40.007-22.793    c-16.802,0-31.52,8.911-39.694,22.263c-2.898-2.166-6.483-3.465-10.379-3.465c-9.594,0-17.372,7.778-17.372,17.372    c0,0.553,0.032,1.097,0.083,1.637c-14.555,0.785-26.116,12.834-26.116,27.585c0,15.259,12.37,27.628,27.628,27.628h106.846    c19.399,0,35.126-15.727,35.126-35.126C420.845,246.454,405.118,230.727,385.719,230.727z"/>
		<path style="opacity:0.5;" d="M385.719,230.727c-0.331,0-0.659,0.016-0.989,0.025c-8.106-13.644-22.985-22.793-40.007-22.793    c-16.802,0-31.52,8.911-39.694,22.263c-2.898-2.166-6.483-3.465-10.379-3.465c-9.594,0-17.372,7.778-17.372,17.372    c0,0.553,0.032,1.097,0.083,1.637c-14.555,0.785-26.116,12.834-26.116,27.585c0,15.259,12.37,27.628,27.628,27.628h106.846    c19.399,0,35.126-15.727,35.126-35.126C420.845,246.454,405.118,230.727,385.719,230.727z"/>
	</g>
</g>
<g id="Character_1_">
	<g>
		<polygon style="fill:#7F3E3B;" points="305.543,402.694 297.962,400.605 300.783,382.493 308.364,384.583   "/>
		<polygon style="fill:#7F3E3B;" points="361.49,407.734 353.626,407.734 351.668,389.524 359.532,389.524   "/>
		<path style="fill:#263238;" d="M352.98,406.824h9.587c0.322,0,0.6,0.223,0.67,0.537l1.553,6.99    c0.161,0.725-0.409,1.411-1.151,1.398c-3.084-0.053-5.335-0.234-9.22-0.234c-2.39,0-9.598,0.248-12.898,0.248    c-3.228,0-3.732-3.264-2.38-3.559c6.059-1.325,10.624-3.153,12.564-4.897C352.053,406.993,352.509,406.824,352.98,406.824z"/>
		<path style="fill:#263238;" d="M298.257,399.742l8.279,2.282c0.31,0.085,0.519,0.375,0.503,0.696l-0.36,7.151    c-0.037,0.741-0.75,1.257-1.462,1.048c-2.972-0.874-7.24-2.238-10.993-3.273c-4.389-1.21-8.245-2.015-13.392-3.433    c-3.112-0.858-3.109-4.242-1.728-4.168c6.288,0.337,11.169,1.533,17.164-0.215C296.92,399.639,297.603,399.561,298.257,399.742z"/>
		<path style="fill:#7F3E3B;" d="M329.221,169.224c-2.908,5.047-5.952,9.844-9.188,14.628c-3.246,4.76-6.669,9.426-10.446,13.976    c-0.994,1.125-1.928,2.256-2.995,3.366l-0.78,0.834l-0.417,0.442c-0.34,0.347-0.698,0.665-1.064,0.932    c-1.481,1.083-2.901,1.496-4.076,1.726c-2.375,0.399-4.161,0.18-5.864-0.058c-1.686-0.256-3.224-0.665-4.712-1.113    c-5.915-1.845-11.076-4.408-16.151-7.479l2.444-5.374c5.273,1.452,10.736,2.902,15.823,3.683c1.265,0.184,2.509,0.302,3.635,0.342    c1.101,0.04,2.179-0.074,2.576-0.263c0.2-0.068,0.141-0.158-0.217,0.06c-0.081,0.056-0.185,0.129-0.277,0.223l0.284-0.352    l0.618-0.759c0.831-0.985,1.624-2.094,2.435-3.143c3.205-4.342,6.268-8.946,9.259-13.612c2.991-4.65,5.974-9.421,8.836-14.095    L329.221,169.224z"/>
		<path style="fill:#407BFF;" d="M332.123,163.451c2.881,6.944-12.196,27.16-12.196,27.16l-15.264-9.342    c0,0,4.578-9.938,9.598-18.268C317.701,157.293,328.871,155.612,332.123,163.451z"/>
		<path style="opacity:0.2;" d="M322.08,165.08l6.48,11.93c-3.69,6.97-8.63,13.6-8.63,13.6l-8.19-5.01    C313.41,179.9,317.1,169.11,322.08,165.08z"/>
		<path style="fill:#7F3E3B;" d="M274.889,190.759l-6.417-2.148l3.389,9.906c0,0,3.662,0.459,6.486-2.331l-0.395-2.587    C277.717,192.055,276.447,190.877,274.889,190.759z"/>
		<polygon style="fill:#7F3E3B;" points="264.611,190.61 262.875,196.376 271.862,198.517 268.472,188.611   "/>
		<g>
			<polygon style="opacity:0.2;" points="300.784,382.499 299.328,391.834 306.912,393.924 308.368,384.589    "/>
			<polygon style="opacity:0.2;" points="359.534,389.529 351.667,389.529 352.681,398.916 360.547,398.916    "/>
		</g>
		<path style="fill:#407BFF;" d="M364.175,161.3c-2.425,8.689-3.975,17.538-4.997,25.866c-0.743,6.094-1.191,11.908-1.467,17.182    c-0.654,12.36-0.382,21.784-0.749,24.977c-6.149-0.426-29.321-2.038-41.955-2.922c-5.127-40.139,3.132-62.816,4.881-67.049    c0.189-0.457,0.596-0.783,1.083-0.869c1.536-0.272,5.189-0.861,9.275-1.099c0.711-0.046,1.434-0.071,2.168-0.085    c4.752-0.101,12.498,0.612,17.838,1.242c1.123,0.133,2.258,0.298,3.362,0.476C359.231,159.931,364.175,161.3,364.175,161.3z"/>
		<path style="opacity:0.2;" d="M353.58,172.617c-0.023,7.031,1.917,12.973,5.194,18.181c0.118-1.197,0.256-2.406,0.404-3.628    c0.56-4.578,1.282-9.318,2.239-14.106L353.58,172.617z"/>
		<path style="fill:#7F3E3B;" d="M349.883,138.335c-1.526,5.66-3.382,16.097,0.365,20.206c-3.155,2.826-7.695,5.101-14.132,4.511    c-4.93-0.451-4.937-3.92-3.703-5.755c6.506-1.082,6.672-5.841,5.869-10.378L349.883,138.335z"/>
		<path style="opacity:0.2;" d="M345.153,141.838l-6.866,5.077c0.194,1.074,0.327,2.159,0.329,3.204    c2.469-0.183,6.015-2.632,6.453-5.174C345.288,143.678,345.32,142.447,345.153,141.838z"/>
		<path style="fill:#7F3E3B;" d="M351.169,129.746c-1.02,7.737-1.223,12.318-5.426,16.032c-6.322,5.587-15.665,1.359-16.978-6.527    c-1.182-7.098,0.684-18.559,8.506-21.12C344.977,115.608,352.188,122.009,351.169,129.746z"/>
		<path style="fill:#263238;" d="M349.633,136.561c-3.072-2.452-4.334-18.747,3.192-18.046    C359.242,119.113,366.285,127.511,349.633,136.561z"/>
		<path style="fill:#263238;" d="M351,122.889c-9.722,2.611-30.394-4.246-24.778-10.111    C333.722,104.944,347.333,116.889,351,122.889z"/>
		<path style="fill:#263238;" d="M355.144,124.936c-7.86-1.143-24.164-16.361-15.7-17.16    C350.109,106.77,354.36,119.444,355.144,124.936z"/>
		<path style="fill:#263238;" d="M353.689,120.38c-0.026,0-0.052-0.002-0.078-0.006c-0.273-0.043-0.459-0.298-0.417-0.571    c0.005-0.033,0.493-3.305-0.613-7.144c-0.076-0.265,0.077-0.542,0.342-0.619c0.264-0.076,0.542,0.076,0.619,0.342    c1.171,4.063,0.663,7.434,0.64,7.576C354.143,120.204,353.93,120.38,353.689,120.38z"/>
		<path style="fill:#7F3E3B;" d="M354.081,138.557c-1.227,1.71-3.129,2.693-4.84,2.946c-2.573,0.38-3.535-2-2.548-4.258    c0.888-2.033,3.298-4.68,5.75-4.026C354.859,133.862,355.483,136.602,354.081,138.557z"/>
		<path style="fill:#407BFF;" d="M296.97,389.3l12.838,3.532c0,0,9.178-49.269,11.479-73.664c0.701-7.421,2.664-17.757,5.131-28.817    c3.115-13.935,7.022-29.003,10.221-40.803c3.375-12.427,5.945-21.223,5.945-21.223L315,226.403c0,0-16.717,65.208-17.531,89.194    C296.621,340.537,296.97,389.3,296.97,389.3z"/>
		<path style="opacity:0.7;fill:#FAFAFA;" d="M296.97,389.3l12.838,3.532c0,0,9.178-49.269,11.479-73.664    c0.701-7.421,2.664-17.757,5.131-28.817c3.115-13.935,7.022-29.003,10.221-40.803c3.375-12.427,5.945-21.223,5.945-21.223    L315,226.403c0,0-16.717,65.208-17.531,89.194C296.621,340.537,296.97,389.3,296.97,389.3z"/>
		<path style="opacity:0.2;" d="M326.418,290.351c3.115-13.935,7.022-29.003,10.221-40.803l-2.862-6.164    C326.935,251.514,325.094,276.68,326.418,290.351z"/>
		<path style="fill:#407BFF;" d="M329.882,227.44c0,0,2.977,67.322,6.296,90.122c3.635,24.968,12.868,79.536,12.868,79.536h14.403    c0,0-4.105-51.986-6.87-76.431c-3.15-27.845,0.377-91.337,0.377-91.337L329.882,227.44z"/>
		<path style="opacity:0.7;fill:#FAFAFA;" d="M329.882,227.44c0,0,2.977,67.322,6.296,90.122    c3.635,24.968,12.868,79.536,12.868,79.536h14.403c0,0-4.105-51.986-6.87-76.431c-3.15-27.845,0.377-91.337,0.377-91.337    L329.882,227.44z"/>
		<polygon style="fill:#407BFF;" points="347.323,397.409 364.282,397.409 364.282,392.343 345.324,392.013   "/>
		<polygon style="fill:#407BFF;" points="295.276,389.155 310.573,393.371 311.935,388.428 294.907,383.456   "/>
		<path style="fill:#263238;" d="M339.231,131.096c-0.044,0.633-0.415,1.122-0.829,1.093c-0.414-0.029-0.713-0.565-0.669-1.198    c0.044-0.633,0.415-1.122,0.829-1.093C338.975,129.927,339.275,130.463,339.231,131.096z"/>
		<path style="fill:#263238;" d="M332.079,130.597c-0.044,0.633-0.415,1.122-0.829,1.093s-0.713-0.565-0.669-1.198    c0.044-0.633,0.415-1.122,0.829-1.093C331.824,129.428,332.123,129.964,332.079,130.597z"/>
		<path style="fill:#630F0F;" d="M334.331,131.07c0,0-1.694,3.55-3.4,5.2c1.046,1.123,2.983,0.778,2.983,0.778L334.331,131.07z"/>
		<path style="fill:#263238;" d="M341.613,128.939c-0.135,0.015-0.274-0.045-0.353-0.167c-0.907-1.392-2.28-1.407-2.294-1.407    c-0.206,0-0.373-0.167-0.373-0.372c0-0.205,0.158-0.375,0.373-0.373c0.073,0,1.793,0.019,2.918,1.745    c0.112,0.172,0.064,0.403-0.109,0.515C341.725,128.913,341.669,128.932,341.613,128.939z"/>
		<path style="fill:#263238;" d="M336.682,140.138c0.001,0,0.003,0,0.004,0c3.21-0.15,4.578-2.419,4.635-2.515    c0.056-0.095,0.024-0.218-0.071-0.274c-0.095-0.056-0.218-0.024-0.274,0.071c-0.013,0.022-1.322,2.179-4.308,2.318    c-0.111,0.005-0.196,0.099-0.191,0.21C336.482,140.056,336.573,140.141,336.682,140.138z"/>
		<path style="fill:#263238;" d="M329.185,127.92c-0.076,0.008-0.154-0.007-0.225-0.048c-0.179-0.103-0.24-0.33-0.137-0.508    c1.027-1.786,2.741-1.905,2.816-1.906c0.206-0.011,0.381,0.146,0.393,0.351c0.011,0.205-0.155,0.382-0.349,0.393l0,0    c-0.059,0.008-1.392,0.105-2.214,1.533C329.407,127.843,329.3,127.908,329.185,127.92z"/>
		<path style="fill:#407BFF;" d="M350.379,408.198c-0.598,0-1.158-0.102-1.514-0.401c-0.281-0.237-0.411-0.568-0.385-0.984    c0.02-0.31,0.184-0.457,0.319-0.526c0.873-0.449,3.406,1.112,3.693,1.291c0.064,0.04,0.098,0.114,0.085,0.188    c-0.012,0.074-0.067,0.133-0.14,0.151C351.891,408.047,351.107,408.198,350.379,408.198z M349.211,406.57    c-0.098,0-0.179,0.015-0.242,0.047c-0.05,0.026-0.108,0.074-0.117,0.219c-0.019,0.296,0.064,0.518,0.253,0.676    c0.431,0.361,1.457,0.41,2.792,0.142C351.009,407.14,349.814,406.57,349.211,406.57z"/>
		<path style="fill:#407BFF;" d="M352.393,407.921c-0.03,0-0.061-0.007-0.089-0.022c-0.814-0.442-2.387-2.165-2.221-3.042    c0.03-0.159,0.147-0.434,0.593-0.488c0.287-0.034,0.555,0.045,0.794,0.24c0.913,0.747,1.101,3.016,1.109,3.112    c0.005,0.069-0.027,0.134-0.084,0.171C352.464,407.91,352.428,407.921,352.393,407.921z M350.806,404.733    c-0.028,0-0.056,0.002-0.084,0.005c-0.242,0.03-0.263,0.141-0.272,0.188c-0.098,0.517,0.904,1.82,1.713,2.434    c-0.092-0.663-0.342-1.986-0.928-2.464C351.1,404.787,350.959,404.733,350.806,404.733z"/>
		<path style="fill:#407BFF;" d="M297.23,400.583c-0.011,0.001-0.022,0.002-0.033,0.001c-1.289-0.094-3.544-0.395-4.172-1.359    c-0.189-0.291-0.222-0.616-0.096-0.966c0.075-0.209,0.223-0.346,0.428-0.396c1.054-0.247,3.683,2.126,3.978,2.399    c0.058,0.054,0.076,0.138,0.045,0.211C297.354,400.534,297.296,400.576,297.23,400.583z M293.499,398.216    c-0.018,0.002-0.035,0.005-0.052,0.009c-0.084,0.02-0.133,0.069-0.166,0.161c-0.086,0.238-0.067,0.446,0.057,0.637    c0.352,0.541,1.58,0.958,3.331,1.141C295.612,399.249,294.112,398.149,293.499,398.216z"/>
		<path style="fill:#407BFF;" d="M297.23,400.583c-0.049,0.005-0.1-0.009-0.139-0.042c-0.802-0.663-2.163-2.802-1.788-3.621    c0.088-0.192,0.303-0.403,0.807-0.318c0.377,0.064,0.683,0.26,0.911,0.582c0.746,1.058,0.387,3.156,0.371,3.245    c-0.011,0.065-0.057,0.12-0.119,0.143C297.26,400.578,297.245,400.581,297.23,400.583z M295.833,396.959    c-0.145,0.016-0.178,0.088-0.191,0.117c-0.225,0.491,0.652,2.119,1.431,2.938c0.067-0.624,0.133-1.92-0.356-2.614    c-0.17-0.242-0.389-0.382-0.668-0.429C295.958,396.955,295.888,396.953,295.833,396.959z"/>
		<g>
			<path style="fill:#7F3E3B;" d="M365.359,165.549c3.7,4.64,7.016,9.317,10.188,14.251c3.152,4.927,6.088,10.018,8.611,15.555     c0.733,1.571,0.945,3.148,0.916,4.415c-0.023,1.288-0.236,2.376-0.505,3.353c-0.547,1.944-1.295,3.501-2.078,4.968     c-1.582,2.896-3.42,5.331-5.301,7.675c-3.817,4.646-7.943,8.702-12.46,12.526l-4.239-4.11c1.621-2.208,3.316-4.479,4.875-6.764     c1.586-2.276,3.126-4.563,4.529-6.869c1.415-2.285,2.692-4.632,3.628-6.839c0.454-1.091,0.804-2.175,0.925-2.998     c0.06-0.405,0.061-0.732,0.034-0.867c-0.021-0.154-0.092-0.007,0.032,0.28c-1.288-2.309-2.721-4.62-4.177-6.923     c-1.497-2.292-3.037-4.574-4.608-6.849c-3.163-4.511-6.477-9.084-9.739-13.437L365.359,165.549z"/>
			<path style="fill:#407BFF;" d="M363.933,161.261c7.19,2.197,14.341,19.503,14.341,19.503l-12.777,13.159     c0,0-7.616-9.917-12.021-18.578C348.677,165.912,355.223,158.6,363.933,161.261z"/>
			<path style="fill:#7F3E3B;" d="M363.241,223.137l-7.979-0.24l3.913,9.251c0,0,6.838-1.304,6.552-5.004L363.241,223.137z"/>
			<polygon style="fill:#7F3E3B;" points="349.944,226.754 353.536,234.248 359.174,232.148 355.262,222.897    "/>
		</g>
	</g>
</g>
<g id="Cloud_1">
	<g>
		<g>
			<path style="fill:#407BFF;" d="M160.368,214.598l-0.481-0.877c2.073-1.138,4.225-2.191,6.397-3.129l0.396,0.918     C164.537,212.436,162.414,213.475,160.368,214.598z"/>
			<path style="fill:#407BFF;" d="M143.273,227.492l-0.711-0.703c3.612-3.651,7.621-6.947,11.916-9.796l0.553,0.833     C150.792,220.637,146.837,223.889,143.273,227.492z"/>
			<path style="fill:#407BFF;" d="M132.986,242.851c0.508,0,1.01,0.024,1.515,0.038c12.422-20.91,35.224-34.931,61.31-34.931     c25.749,0,48.304,13.656,60.831,34.118c4.441-3.32,9.934-5.31,15.906-5.31c14.703,0,26.623,11.919,26.623,26.623     c0,0.847-0.049,1.682-0.127,2.508c22.306,1.203,40.023,19.668,40.023,42.275c0,23.384-18.957,42.34-42.34,42.34H132.986     c-29.73,0-53.831-24.102-53.831-53.831C79.155,266.952,103.256,242.851,132.986,242.851z"/>
		</g>
		<path style="opacity:0.2;" d="M274.685,202.097l16.983,97.434c0.556,3.189-1.578,6.224-4.767,6.779l-61.046,10.64    c-3.188,0.556-6.224-1.578-6.779-4.767l-16.983-97.433L274.685,202.097z"/>
		<g>
			<g>
				<g>
					<g>
						<path style="fill:#FFFFFF;" d="M301.429,287.358l-22.72-89.254l-22.628-7.307l-51.906,13.213        c-2.308,0.588-3.703,2.935-3.116,5.243l24.779,97.346c0.588,2.308,2.935,3.703,5.243,3.116l67.23-17.113        C300.622,292.014,302.017,289.666,301.429,287.358z"/>
						<path style="fill:#407BFF;" d="M230.02,310.858c-2.375,0-4.545-1.604-5.158-4.01l-24.78-97.346        c-0.351-1.377-0.144-2.809,0.582-4.031c0.726-1.222,1.885-2.088,3.262-2.439l51.906-13.213        c0.185-0.046,0.378-0.041,0.559,0.018l22.628,7.307c0.33,0.107,0.582,0.375,0.668,0.711l22.719,89.254        c0.351,1.378,0.144,2.809-0.582,4.031c-0.726,1.222-1.884,2.088-3.262,2.439l-67.23,17.113        C230.893,310.804,230.453,310.858,230.02,310.858z M256.049,191.847l-51.624,13.141c-0.855,0.218-1.575,0.755-2.026,1.514        c-0.451,0.759-0.579,1.648-0.361,2.503l24.779,97.346c0.218,0.855,0.755,1.575,1.514,2.026        c0.758,0.451,1.647,0.579,2.503,0.361l67.23-17.113c0.855-0.217,1.575-0.755,2.025-1.514c0.451-0.759,0.579-1.648,0.361-2.503        l-22.582-88.714L256.049,191.847z"/>
					</g>
					<g>
						<path style="fill:#E0E0E0;" d="M278.709,198.104l-22.628-7.307l11.287,11.846c1.607,1.686,4.262,1.792,5.998,0.24        L278.709,198.104z"/>
						<path style="fill:#407BFF;" d="M270.49,204.999c-1.403,0-2.801-0.558-3.851-1.66l-11.287-11.846        c-0.318-0.334-0.369-0.842-0.124-1.232c0.246-0.391,0.726-0.565,1.164-0.423l22.628,7.307        c0.344,0.111,0.602,0.397,0.677,0.751c0.075,0.354-0.045,0.72-0.314,0.961l-5.343,4.779        C273.018,204.548,271.751,204.999,270.49,204.999z M259.552,192.978l8.546,8.97c1.238,1.3,3.257,1.381,4.595,0.184        l4.033-3.607L259.552,192.978z"/>
					</g>
				</g>
			</g>
			<g>
				<path style="fill:#407BFF;" d="M253.249,267.84l10.686-10.423l1.181,4.639c5.82-2.56,9.121-9.035,7.502-15.396      c-1.803-7.082-9.031-11.376-16.112-9.574l-1.231-4.836c9.748-2.481,19.698,3.43,22.179,13.179      c2.299,9.031-2.61,18.231-11.095,21.509l1.259,4.947L253.249,267.84z"/>
				<path style="fill:#407BFF;" d="M250.994,235.663l-10.686,10.423l-1.181-4.639c-5.82,2.56-9.121,9.035-7.502,15.396      c1.803,7.082,9.031,11.376,16.112,9.574l1.231,4.836c-9.748,2.481-19.698-3.43-22.179-13.179      c-2.299-9.031,2.61-18.231,11.095-21.509l-1.259-4.947L250.994,235.663z"/>
			</g>
		</g>
	</g>
</g>
</svg>